<svg viewBox="0 0 800 120" width="100%" height="120" xmlns="http://www.w3.org/2000/svg" style="overflow: visible;">
  <style>
    .petal1 { fill: #ffb6c1; animation: blow1 5s infinite linear; }
    .petal2 { fill: #ff69b4; animation: blow2 6s infinite linear; }
    .petal3 { fill: #ffc0cb; animation: blow3 7s infinite linear; }
    @keyframes blow1 {
      0% { transform: translate(0px, 0px) rotate(0deg); opacity: 0; }
      20% { opacity: 1; }
      80% { opacity: 1; }
      100% { transform: translate(120px, 40px) rotate(120deg); opacity: 0; }
    }
    @keyframes blow2 {
      0% { transform: translate(0px, 0px) rotate(0deg); opacity: 0; }
      20% { opacity: 1; }
      80% { opacity: 1; }
      100% { transform: translate(150px, 20px) rotate(180deg); opacity: 0; }
    }
    @keyframes blow3 {
      0% { transform: translate(0px, 0px) rotate(0deg); opacity: 0; }
      20% { opacity: 1; }
      80% { opacity: 1; }
      100% { transform: translate(90px, 50px) rotate(90deg); opacity: 0; }
    }
  </style>
  
  <g transform="translate(100, 30) scale(0.8)">
    <g class="petal1" style="animation-delay: 0s;">
      <path d="M0,0 C10,-10 20,5 10,15 C5,10 -10,10 0,0" />
    </g>
  </g>
  <g transform="translate(300, 25) scale(0.6)">
    <g class="petal2" style="animation-delay: -2s;">
      <path d="M0,0 C10,-10 20,5 10,15 C5,10 -10,10 0,0" />
    </g>
  </g>
  <g transform="translate(500, 15) scale(0.9)">
    <g class="petal3" style="animation-delay: -4s;">
      <path d="M0,0 C10,-10 20,5 10,15 C5,10 -10,10 0,0" />
    </g>
  </g>
  <g transform="translate(700, 25) scale(1)">
    <g class="petal1" style="animation-delay: -1s;">
      <path d="M0,0 C10,-10 20,5 10,15 C5,10 -10,10 0,0" />
    </g>
  </g>
</svg>
